<?xml version="1.0" standalone="no"?><!DOCTYPE svg PUBLIC "-//W3C//DTD SVG 1.1//EN" "http://www.w3.org/Graphics/SVG/1.1/DTD/svg11.dtd"><svg t="1755241036074" class="icon" viewBox="0 0 1024 1024" version="1.1" xmlns="http://www.w3.org/2000/svg" p-id="39211" width="128" height="128" xmlns:xlink="http://www.w3.org/1999/xlink"><path d="M571.2 724.352L367.552 928 96 656.448l203.648-203.648z" fill="#0077A0" opacity=".1" p-id="39212"></path><path d="M865.344 249.152L593.792 520.704 706.944 633.6l-90.496 90.752-316.8-316.8L390.4 317.056l112.896 113.152 271.552-271.552a64 64 0 1 1 90.496 90.496z" fill="#212121" opacity=".1" p-id="39213"></path><path d="M888 136a96 96 0 0 0-135.808 0l-248.896 248.96L412.8 294.4h-45.248L277.056 384.96v45.248l316.736 316.736h45.248l90.56-90.496V611.2L639.04 520.704l248.96-248.896a96 96 0 0 0 0-135.808z m-271.552 543.104L344.896 407.552l45.504-45.248L661.696 633.6z m226.24-452.544L593.792 475.456l-45.248-45.248 248.896-248.896a32 32 0 1 1 45.248 45.248z" fill="#212121" p-id="39214"></path><path d="M593.792 746.944L390.4 950.656h-45.504l-271.552-271.552V633.6l203.712-203.392 45.248 45.248-181.056 180.992 135.808 135.808 135.744-135.808 45.248 45.248-135.744 135.808 45.248 45.248 180.992-181.056z" fill="#0077A0" p-id="39215"></path></svg>