<?xml version="1.0" standalone="no"?><!DOCTYPE svg PUBLIC "-//W3C//DTD SVG 1.1//EN" "http://www.w3.org/Graphics/SVG/1.1/DTD/svg11.dtd"><svg t="1754896330037" class="icon" viewBox="0 0 1024 1024" version="1.1" xmlns="http://www.w3.org/2000/svg" p-id="47991" xmlns:xlink="http://www.w3.org/1999/xlink" width="200" height="200"><path d="M457.9 879.3c-65.6 65.7-332.7 145.7-364.4 67-12.9-32 29.2-31.6 48.3-78.7 24.6-60.7 21.4-98.3 30.3-134.6 11.1-45.3 25.7-68.8 48.2-91.4 65.6-65.6 172-65.6 237.6 0s65.6 172.1 0 237.7z" fill="#515151" p-id="47992"></path><path d="M171.4 1018.1c-15.2 0-29.3-1.2-42-3.8C83.6 1005 64.8 980.2 57 961c-17.6-43.6 12.9-69.6 26-80.8 9.2-7.9 17.2-14.7 22.4-27.4 14.6-35.9 18.1-62.1 21.4-87.5 1.9-14.1 3.7-27.5 7.1-41.7 12-48.9 28.4-79.6 58.6-109.8 39.2-39.2 91.2-60.8 146.6-60.8s107.4 21.6 146.6 60.8c80.8 80.9 80.8 212.5 0 293.3-53.9 53.9-209.3 111-314.3 111z m-32.5-82.3c5 1.5 12.4 3 22.7 3.6 82.4 4.7 228.2-47.5 268.5-87.8 50.2-50.2 50.2-131.9 0-182.1-24.3-24.3-56.6-37.7-91-37.7s-66.7 13.4-91 37.7c-17.1 17.1-28.2 33.8-37.8 73-2.5 10-3.9 20.8-5.5 33.2-3.6 27.5-8.2 61.6-26.5 106.8-11 26.6-27 42.5-39.4 53.3z m319-56.5zM526.3 570.4c25.4 25.4 41.7 56.1 48.8 87.6l405.7-371c45.7-41.8 43.2-117.2-5.5-166-49.7-49.7-126.9-51.1-168-3.1l-349.9 409c24.8 8.7 48.5 23.2 68.9 43.5z" fill="#A0A0A0" p-id="47993"></path></svg>