<?xml version="1.0" standalone="no"?><!DOCTYPE svg PUBLIC "-//W3C//DTD SVG 1.1//EN" "http://www.w3.org/Graphics/SVG/1.1/DTD/svg11.dtd"><svg t="1755151478847" class="icon" viewBox="0 0 1024 1024" version="1.1" xmlns="http://www.w3.org/2000/svg" p-id="18241" xmlns:xlink="http://www.w3.org/1999/xlink" width="200" height="200"><path d="M533 810.2c-2.5 0-4.9-0.9-6.8-2.8L226.4 507.5c-3.8-3.8-3.8-9.9 0-13.6 3.8-3.8 9.9-3.8 13.6 0l299.9 299.9c3.8 3.8 3.8 9.9 0 13.6-1.9 1.8-4.4 2.8-6.9 2.8z m265.8-265.8c-2.5 0-4.9-0.9-6.8-2.8L492.1 241.7c-3.8-3.8-3.8-9.9 0-13.6s9.9-3.8 13.6 0L805.6 528c3.8 3.8 3.8 9.9 0 13.6-1.8 1.9-4.3 2.8-6.8 2.8z" fill="#515151" p-id="18242"></path><path d="M397.1 907.7c-39.5 0-79-15-109-45.1L117.7 692.2c-26.3-26.3-26.3-69.1 0-95.4l463.4-463.4c26.3-26.3 69.1-26.3 95.4 0l231.7 231.7c26.3 26.3 26.3 69.1 0 95.4l-402 402.1c-30.1 30.1-69.6 45.1-109.1 45.1z m231.8-755.5c-7.4 0-14.8 2.8-20.4 8.5L145 624.1c-5.5 5.5-8.5 12.7-8.5 20.4 0 7.7 3 15 8.5 20.4l170.4 170.4c45.1 45.1 118.5 45.1 163.6 0l402-402c11.3-11.3 11.3-29.6 0-40.9L649.3 160.7c-5.6-5.7-13-8.5-20.4-8.5z" fill="#515151" p-id="18243"></path><path d="M394.325364 646.826717L259.498687 512.00004l125.269343-125.226676 125.226677-125.226677 135.253343 135.253344 135.338678 135.296011-124.757343 124.757343c-68.565339 68.608005-125.18401 124.714676-125.738677 124.714676-0.554667 0-61.653338-60.629338-135.765344-134.78401z" fill="#515151" p-id="18244"></path><path d="M659.882718 381.226696l-134.826677-134.78401 45.440004-45.397337c41.813337-41.813337 46.080004-45.525337 53.67467-46.50667 4.565334-0.64 10.837334-0.512 13.952002 0.256 6.741334 1.706667 235.136018 228.352018 244.266685 242.432019 6.144 9.472001 7.168001 16.384001 3.712001 25.600002-1.792 4.864-87.552007 93.184007-90.453341 93.184007-0.554667 0-61.653338-60.629338-135.765344-134.784011z" fill="#FFFFFF" p-id="18245"></path><path d="M374.186696 865.877401a153.600012 153.600012 0 0 1-27.136002-10.197334c-16.938668-8.106667-18.005335-9.045334-110.293342-100.992008-51.285337-51.029337-94.506674-95.274674-96.085341-98.261341a26.069335 26.069335 0 0 1 0-23.296002c1.621333-2.986667 25.600002-28.074669 53.333337-55.722671l50.432004-50.304004L379.733363 662.442718l135.253344 135.381344-24.106669 23.722669c-25.600002 25.173335-35.669336 32.213336-57.088004 40.021336-15.274668 5.546667-43.30667 7.594667-59.605338 4.309334z" fill="#FFFFFF" p-id="18246"></path><path d="M371.712029 865.066734a136.192011 136.192011 0 0 1-27.136002-10.240001c-13.269334-6.826667-23.253335-16.128001-107.818675-100.266674-51.285337-50.986671-94.506674-95.146674-96.085341-98.133341a26.069335 26.069335 0 0 1 0-23.296002c1.621333-2.986667 25.600002-28.074669 53.333337-55.722671l50.432004-50.304004L379.733363 662.485385l135.253344 135.381344-25.344002 24.874669c-21.888002 21.418668-27.733336 25.984002-42.240003 32.938669-25.600002 12.288001-48.896004 15.189335-75.690673 9.386667z" fill="#FFFFFF" p-id="18247"></path></svg>