<?xml version="1.0" standalone="no"?><!DOCTYPE svg PUBLIC "-//W3C//DTD SVG 1.1//EN" "http://www.w3.org/Graphics/SVG/1.1/DTD/svg11.dtd"><svg t="1755229618135" class="icon" viewBox="0 0 1024 1024" version="1.1" xmlns="http://www.w3.org/2000/svg" p-id="14457" width="16" height="16" xmlns:xlink="http://www.w3.org/1999/xlink"><path d="M592.981333 33.408l397.952 397.994667a42.666667 42.666667 0 0 1 0 60.330666l-408.234666 408.234667L124.373333 441.642667 532.608 33.408a42.666667 42.666667 0 0 1 60.373333 0z" fill="#E3E8EF" p-id="14458"></path><path d="M592.981333 33.408l397.952 397.994667a42.666667 42.666667 0 0 1 0 60.330666l-408.234666 408.234667L124.373333 441.642667 532.608 33.408a42.666667 42.666667 0 0 1 60.373333 0zM562.773333 99.84L220.928 441.6l361.813333 361.813333 341.845334-341.888-361.813334-361.813333z" fill="#768395" p-id="14459"></path><path d="M641.152 841.514667l-128.469333 128.469333a170.666667 170.666667 0 0 1-241.365334 0L54.357333 753.066667a170.666667 170.666667 0 0 1 0-241.365334l128.469334-128.426666 458.325333 458.282666zM182.826667 479.744l-80.213334 80.213333a102.4 102.4 0 0 0 0 144.810667l216.96 216.96a102.4 102.4 0 0 0 144.853334 0l80.213333-80.213333-361.813333-361.770667z" fill="#768395" p-id="14460"></path></svg>