<?xml version="1.0" standalone="no"?><!DOCTYPE svg PUBLIC "-//W3C//DTD SVG 1.1//EN" "http://www.w3.org/Graphics/SVG/1.1/DTD/svg11.dtd"><svg t="1754896307391" class="icon" viewBox="0 0 1024 1024" version="1.1" xmlns="http://www.w3.org/2000/svg" p-id="44637" xmlns:xlink="http://www.w3.org/1999/xlink" width="200" height="200"><path d="M160 160m85.333333 0l533.333334 0q85.333333 0 85.333333 85.333333l0 533.333334q0 85.333333-85.333333 85.333333l-533.333334 0q-85.333333 0-85.333333-85.333333l0-533.333334q0-85.333333 85.333333-85.333333Z" fill="#E5E5E5" p-id="44638"></path><path d="M778.666667 885.333333H245.333333a106.666667 106.666667 0 0 1-106.666666-106.666666V245.333333a106.666667 106.666667 0 0 1 106.666666-106.666666h533.333334a106.666667 106.666667 0 0 1 106.666666 106.666666v533.333334a106.666667 106.666667 0 0 1-106.666666 106.666666zM245.333333 181.333333a64 64 0 0 0-64 64v533.333334a64 64 0 0 0 64 64h533.333334a64 64 0 0 0 64-64V245.333333a64 64 0 0 0-64-64z" fill="#686868" p-id="44639"></path></svg>